<?xml version="1.0" standalone="no"?>
<!DOCTYPE svg PUBLIC "-//W3C//DTD SVG 20010904//EN"
 "http://www.w3.org/TR/2001/REC-SVG-20010904/DTD/svg10.dtd">
<svg version="1.0" xmlns="http://www.w3.org/2000/svg"
 width="128.000000pt" height="128.000000pt" viewBox="0 0 128.000000 128.000000"
 preserveAspectRatio="xMidYMid meet">
<metadata>
Created by potrace 1.14, written by Peter Selinger 2001-2017
</metadata>
<g transform="translate(0.000000,128.000000) scale(0.100000,-0.100000)"
fill="#000000" stroke="none">
<path d="M220 1051 c-14 -27 -13 -37 6 -55 38 -39 99 6 74 55 -14 26 -66 26
-80 0z"/>
<path d="M853 964 c-8 -22 10 -49 32 -49 22 0 40 27 32 49 -8 21 -56 21 -64 0z"/>
<path d="M590 917 c-47 -23 -61 -70 -58 -190 3 -109 3 -109 36 -138 58 -52
138 -34 168 37 19 46 19 206 -1 244 -29 56 -88 75 -145 47z"/>
<path d="M302 817 c-12 -14 -17 -323 -6 -352 8 -19 40 -20 48 0 10 28 6 338
-5 352 -14 16 -24 17 -37 0z"/>
<path d="M1022 818 c-13 -13 -18 -321 -6 -352 8 -21 40 -21 48 0 3 9 6 89 6
178 0 153 -5 186 -30 186 -3 0 -11 -5 -18 -12z"/>
<path d="M377 756 c-3 -8 -6 -63 -6 -124 -1 -89 2 -112 15 -123 31 -25 44 14
44 127 0 56 -3 109 -6 118 -8 20 -40 21 -47 2z"/>
<path d="M1096 754 c-3 -9 -6 -64 -6 -124 0 -83 3 -110 15 -120 31 -26 43 4
44 118 1 60 -1 116 -5 125 -8 21 -40 22 -48 1z"/>
<path d="M142 748 c-13 -13 -17 -183 -6 -212 8 -20 40 -21 47 -2 7 19 8 174 1
203 -7 25 -23 30 -42 11z"/>
<path d="M862 748 c-14 -14 -17 -195 -3 -216 5 -8 17 -12 27 -10 17 3 19 15
22 107 3 117 -11 154 -46 119z"/>
<path d="M222 707 c-6 -7 -10 -42 -9 -77 2 -55 5 -65 21 -68 26 -5 33 11 35
75 1 70 -20 102 -47 70z"/>
<path d="M940 705 c-7 -9 -10 -38 -8 -77 2 -52 6 -63 22 -66 26 -5 36 15 36
79 0 69 -22 98 -50 64z"/>
<path d="M493 579 c-26 -26 34 -104 90 -116 24 -5 27 -10 27 -47 0 -23 7 -51
15 -62 15 -19 15 -19 30 0 8 11 15 39 15 63 0 33 4 43 16 43 27 0 78 37 98 71
18 31 18 33 1 45 -16 12 -23 9 -56 -26 -35 -36 -44 -40 -88 -40 -44 0 -54 4
-91 40 -48 46 -43 43 -57 29z"/>
<path d="M916 351 c-9 -13 4 -41 18 -41 18 0 35 21 29 36 -6 16 -39 19 -47 5z"/>
<path d="M432 298 c-18 -18 -14 -46 8 -58 23 -12 35 -7 50 20 18 33 -31 65
-58 38z"/>
</g>
</svg>
